<svg width="32" height="39" viewBox="0 0 32 39" fill="none" xmlns="http://www.w3.org/2000/svg">
<path fill-rule="evenodd" clip-rule="evenodd" d="M15.8439 24.26C15.8439 25.1987 15.9465 25.888 16.1519 26.328C16.3572 26.7386 16.7385 27.032 17.2959 27.208L17.3118 27.2127C17.3164 27.1999 17.3217 27.1877 17.3275 27.176C17.3862 27.088 17.4448 27.044 17.5035 27.044C19.9968 27.1907 22.0062 27.264 23.5315 27.264C25.0275 27.264 26.5822 27.22 28.1955 27.132C28.2542 27.132 28.2982 27.176 28.3275 27.264C28.3862 27.3227 28.4155 27.3813 28.4155 27.44C28.4155 27.6453 28.3422 27.748 28.1955 27.748C27.6675 27.7187 27.3008 27.8213 27.0955 28.056C26.8902 28.2613 26.7582 28.7013 26.6995 29.376C26.6408 30.0213 26.6115 31.1947 26.6115 32.896C26.6115 34.216 26.6555 35.1547 26.7435 35.712C26.8608 36.2693 26.9195 36.6213 26.9195 36.768C26.9195 36.944 26.8755 37.0613 26.7875 37.12C26.7288 37.1787 26.5968 37.2373 26.3915 37.296C22.6075 38.1173 19.2048 38.528 16.1835 38.528C12.9568 38.528 10.1408 37.912 7.73551 36.68C5.33017 35.448 3.49684 33.776 2.23551 31.664C0.974173 29.5227 0.343506 27.1467 0.343506 24.536C0.343506 21.72 1.06217 19.212 2.49951 17.012C3.96617 14.7827 5.96084 13.0667 8.48351 11.864C9.28036 11.4793 10.1058 11.1547 10.9599 10.8901V4.06398C10.9599 3.18398 10.8865 2.53865 10.7399 2.12798C10.5932 1.71731 10.2999 1.43865 9.85986 1.29198C9.41986 1.11598 8.74519 1.02798 7.83586 1.02798C7.74786 1.02798 7.70386 0.939981 7.70386 0.763981C7.70386 0.587982 7.74786 0.499982 7.83586 0.499982L10.1679 0.543981C11.5172 0.602647 12.5879 0.63198 13.3799 0.63198C14.0839 0.63198 14.9199 0.587981 15.8879 0.499982C16.2692 0.470647 16.7532 0.441313 17.3399 0.41198C17.9265 0.382647 18.6012 0.367981 19.3639 0.367981C22.3559 0.367981 24.7172 0.998647 26.4479 2.25998C28.1785 3.49198 29.0439 5.41331 29.0439 8.02398C29.0439 9.84265 28.5745 11.3826 27.6359 12.644C27.0323 13.4551 26.3134 14.1388 25.4794 14.6952L25.8195 18.332C25.8195 18.42 25.7462 18.4787 25.5995 18.508C25.4528 18.5373 25.3502 18.4933 25.2915 18.376C24.8308 17.3625 24.2904 16.4494 23.6703 15.6368C22.3021 16.1936 20.896 16.472 19.4519 16.472C18.6599 16.472 17.9705 16.3986 17.3839 16.252C17.3252 16.252 17.2959 16.1786 17.2959 16.032C17.2959 15.944 17.3105 15.856 17.3399 15.768C17.3985 15.68 17.4572 15.6506 17.5159 15.68C17.9559 15.7973 18.4545 15.856 19.0119 15.856C20.3152 15.856 21.3996 15.2676 22.265 14.0908C21.874 13.7305 21.4602 13.3988 21.0235 13.096C19.4907 12.0155 17.7641 11.3978 15.8439 11.2429V24.26ZM20.4955 28.056C20.3954 28.0191 20.2816 27.9856 20.1541 27.9553C20.1328 27.9851 20.1041 28 20.0679 28C18.8652 28 17.9265 27.9853 17.2519 27.956L13.4239 27.912L10.2119 27.956C9.62519 27.9853 8.83319 28 7.83586 28C7.74786 28 7.70386 27.912 7.70386 27.736C7.70386 27.56 7.74786 27.472 7.83586 27.472C8.77452 27.472 9.44919 27.3987 9.85986 27.252C10.2999 27.1053 10.5932 26.8266 10.7399 26.416C10.8865 25.976 10.9599 25.316 10.9599 24.436V11.9596C9.79126 12.4801 8.80448 13.2696 7.99951 14.328C6.44484 16.4107 5.66751 19.256 5.66751 22.864C5.66751 25.768 6.16617 28.364 7.16351 30.652C8.16084 32.9107 9.53951 34.6707 11.2995 35.932C13.0888 37.164 15.0835 37.78 17.2835 37.78C18.4862 37.78 19.4102 37.648 20.0555 37.384C20.7008 37.12 21.1702 36.6067 21.4635 35.844C21.7568 35.0813 21.9035 33.952 21.9035 32.456C21.9035 30.9307 21.8155 29.8747 21.6395 29.288C21.4635 28.672 21.0822 28.2613 20.4955 28.056ZM17.0195 10.016C16.6229 10.016 16.2311 10.0258 15.8439 10.0455V4.15198C15.8439 3.03731 15.9905 2.28931 16.2839 1.90798C16.5772 1.52665 17.1345 1.33598 17.9559 1.33598C19.8332 1.33598 21.2559 1.96665 22.2239 3.22798C23.2212 4.48931 23.7199 6.27865 23.7199 8.59598C23.7199 9.41274 23.6634 10.1639 23.5504 10.8495C22.8798 10.6593 22.0962 10.4988 21.1995 10.368C19.7915 10.1333 18.3982 10.016 17.0195 10.016ZM29.1624 15.806V13.802H29.8344V15.806H31.8384V16.478H29.8344V18.476H29.1624V16.478H27.1644V15.806H29.1624ZM27.6744 14.282C27.7744 14.206 27.8944 14.168 28.0344 14.168C28.1784 14.168 28.3004 14.206 28.4004 14.282C28.5004 14.362 28.5504 14.49 28.5504 14.666C28.5504 14.85 28.5004 14.978 28.4004 15.05C28.3004 15.126 28.1784 15.164 28.0344 15.164C27.8944 15.164 27.7744 15.126 27.6744 15.05C27.5744 14.978 27.5244 14.85 27.5244 14.666C27.5244 14.49 27.5744 14.362 27.6744 14.282ZM30.6024 14.282C30.7024 14.206 30.8244 14.168 30.9684 14.168C31.1084 14.168 31.2284 14.206 31.3284 14.282C31.4284 14.362 31.4784 14.49 31.4784 14.666C31.4784 14.85 31.4284 14.978 31.3284 15.05C31.2284 15.126 31.1084 15.164 30.9684 15.164C30.8244 15.164 30.7024 15.126 30.6024 15.05C30.5024 14.978 30.4524 14.85 30.4524 14.666C30.4524 14.49 30.5024 14.362 30.6024 14.282ZM27.6744 17.24C27.7744 17.164 27.8944 17.126 28.0344 17.126C28.1784 17.126 28.3004 17.164 28.4004 17.24C28.5004 17.32 28.5504 17.448 28.5504 17.624C28.5504 17.808 28.5004 17.936 28.4004 18.008C28.3004 18.084 28.1784 18.122 28.0344 18.122C27.8944 18.122 27.7744 18.084 27.6744 18.008C27.5744 17.936 27.5244 17.808 27.5244 17.624C27.5244 17.448 27.5744 17.32 27.6744 17.24ZM30.6024 17.24C30.7024 17.164 30.8244 17.126 30.9684 17.126C31.1084 17.126 31.2284 17.164 31.3284 17.24C31.4284 17.32 31.4784 17.448 31.4784 17.624C31.4784 17.808 31.4284 17.936 31.3284 18.008C31.2284 18.084 31.1084 18.122 30.9684 18.122C30.8244 18.122 30.7024 18.084 30.6024 18.008C30.5024 17.936 30.4524 17.808 30.4524 17.624C30.4524 17.448 30.5024 17.32 30.6024 17.24Z" fill="#FFDEAE"/>
</svg>
